# xmcd
#
# Track frame offsets: 
#        150
#        16335
#        30485
#        47418
#        63719
#        87344
#        108694
#        140997
#        164321
#        189766
#
# Disc length: 2937 seconds
#
# Revision: 0
# Processed by: cddbd v1.5.2PL0 Copyright (c) Steve Scherf et al.
# Submitted via: ExactAudioCopyFreeDBPlugin 1.0
#
DISCID=830b770a
DTITLE=The Amazing Snakeheads - Amphetamine Ballads
DYEAR=2014
DGENRE=Rock
TTITLE0=I'm A Vampire
TTITLE1=Nighttime
TTITLE2=Swamp Song
TTITLE3=Here It Comes Again
TTITLE4=Flatlining
TTITLE5=Where Is My Knife?
TTITLE6=Every Guy Wants To Be Her Baby
TTITLE7=MEmories
TTITLE8=Heading For Heartbreak
TTITLE9=Tiger By The Tail
EXTD=
EXTT0=
EXTT1=
EXTT2=
EXTT3=
EXTT4=
EXTT5=
EXTT6=
EXTT7=
EXTT8=
EXTT9=
PLAYORDER=
